<svg width="292" height="121" viewBox="0 0 292 121" fill="none" xmlns="http://www.w3.org/2000/svg">
<g filter="url(#filter0_d_11_29)">
<path d="M6.27587 0.941381H282.414C285.36 0.941381 287.749 3.32971 287.749 6.27587V25.4365C287.749 27.3979 286.672 29.2012 284.946 30.132L235.508 56.7853C234.73 57.2047 233.86 57.4242 232.977 57.4242H216.518H144.345H72.1725H54.9493C54.0545 57.4242 53.1741 57.1991 52.3891 56.7697L3.71565 30.1424C2.00512 29.2067 0.941381 27.4122 0.941381 25.4625V6.27587C0.941381 3.32971 3.32971 0.941381 6.27587 0.941381Z" fill="#FFB630" stroke="black" stroke-width="1.88276"/>
<path d="M58.8716 52.0897C58.0469 52.0897 57.2349 51.8866 56.5073 51.4982L54.5774 50.468L53.9863 51.5753L50.1263 49.5149L50.7174 48.4076L46.8574 46.3473L46.2663 47.4546L42.4063 45.3942L42.9974 44.2869L39.1374 42.2265L38.5464 43.3338L34.6864 41.2734L35.2774 40.1661L31.4174 38.1057L30.8264 39.213L26.9664 37.1526L27.5575 36.0453L23.6975 33.9849L23.1064 35.0922L19.2464 33.0318L19.8375 31.9245L15.9775 29.8642L15.3864 30.9715L11.5264 28.9111L12.1175 27.8038L10.1875 26.7736C9.78201 26.5571 9.41465 26.2899 9.09126 25.9822L8.22609 26.8916C7.40269 26.1082 6.80664 25.1144 6.50329 24.0191L7.71293 23.6841C7.59379 23.2539 7.53105 22.804 7.53105 22.3444V19.5824H6.27588V14.0585H7.53105V11.2966C7.53105 10.6135 7.66677 9.96527 7.91153 9.37504L6.7521 8.89424C7.38825 7.36016 8.61535 6.13306 10.1494 5.49691L10.6302 6.65634C11.2205 6.41158 11.8687 6.27587 12.5517 6.27587H14.7483V5.02069H19.1414V6.27587H23.5345V5.02069H27.9276V6.27587H32.3207V5.02069H36.7139V6.27587H41.107V5.02069H45.5001V6.27587H49.8932V5.02069H54.2863V6.27587H58.6794V5.02069H63.0725V6.27587H67.4656V5.02069H71.8587V6.27587H76.2519V5.02069H80.645V6.27587H85.0381V5.02069H89.4312V6.27587H93.8243V5.02069H98.2174V6.27587H102.611V5.02069H107.004V6.27587H111.397V5.02069H115.79V6.27587H120.183V5.02069H124.576V6.27587H128.969V5.02069H133.362V6.27587H137.755V5.02069H142.149V6.27587H146.542V5.02069H150.935V6.27587H155.328V5.02069H159.721V6.27587H164.114V5.02069H168.507V6.27587H172.9V5.02069H177.293V6.27587H181.687V5.02069H186.08V6.27587H190.473V5.02069H194.866V6.27587H199.259V5.02069H203.652V6.27587H208.045V5.02069H212.438V6.27587H216.831V5.02069H221.225V6.27587H225.618V5.02069H230.011V6.27587H234.404V5.02069H238.797V6.27587H243.19V5.02069H247.583V6.27587H251.976V5.02069H256.369V6.27587H260.763V5.02069H265.156V6.27587H269.549V5.02069H273.942V6.27587H276.138C276.821 6.27587 277.47 6.41158 278.06 6.65634L278.541 5.49691C280.075 6.13307 281.302 7.36017 281.938 8.89424L280.779 9.37503C281.023 9.96527 281.159 10.6135 281.159 11.2966V14.0521H282.414V19.5631H281.159V22.3186C281.159 22.7809 281.096 23.2333 280.975 23.6656L282.184 24.0025C281.878 25.1035 281.275 26.1013 280.443 26.8853L279.582 25.9721C279.256 26.2799 278.885 26.5467 278.476 26.762L276.515 27.7932L277.1 28.9041L273.179 30.9666L272.595 29.8558L268.674 31.9183L269.258 33.0292L265.337 35.0917L264.753 33.9808L260.832 36.0434L261.416 37.1542L257.495 39.2168L256.911 38.1059L252.99 40.1685L253.575 41.2793L249.654 43.3419L249.069 42.231L245.149 44.2935L245.733 45.4044L241.812 47.4669L241.228 46.3561L237.307 48.4186L237.891 49.5295L233.97 51.592L233.386 50.4812L231.426 51.5124C230.705 51.8916 229.903 52.0897 229.088 52.0897H227.125V53.3449H223.198V52.0897H219.27V53.3449H215.343V52.0897H213.38H211.222V53.3449H206.908V52.0897H202.593V53.3449H198.278V52.0897H193.964V53.3449H189.649V52.0897H185.334V53.3449H181.02V52.0897H176.705V53.3449H172.39V52.0897H168.076V53.3449H163.761V52.0897H159.446V53.3449H155.132V52.0897H150.817V53.3449H146.502V52.0897H144.345H142.188V53.3449H137.873V52.0897H133.558V53.3449H129.244V52.0897H124.929V53.3449H120.614V52.0897H116.3V53.3449H111.985V52.0897H107.67V53.3449H103.356V52.0897H99.0411V53.3449H94.7264V52.0897H90.4118V53.3449H86.0971V52.0897H81.7824V53.3449H77.4678V52.0897H75.3105H73.2556V53.3449H69.1459V52.0897H65.0362V53.3449H60.9264V52.0897H58.8716Z" stroke="black" stroke-width="2.51035" stroke-dasharray="4.39 4.39"/>
<path d="M132.975 36.5724L127.578 29.6286L132.805 23.2509H136.466L130.578 30.1758V28.9682L136.654 36.5724H132.975ZM124.918 36.5724V23.2509H127.88V36.5724H124.918ZM143.419 36.78C142.425 36.78 141.501 36.6102 140.645 36.2705C139.802 35.9183 139.06 35.4277 138.419 34.7987C137.79 34.1698 137.299 33.4402 136.947 32.6099C136.595 31.7671 136.419 30.8614 136.419 29.8928C136.419 28.9242 136.595 28.0248 136.947 27.1945C137.299 26.3517 137.79 25.6221 138.419 25.0057C139.048 24.3894 139.784 23.9113 140.626 23.5717C141.482 23.2195 142.406 23.0434 143.4 23.0434C144.457 23.0434 145.394 23.2132 146.212 23.5528C147.042 23.8925 147.765 24.3579 148.381 24.9491L146.4 26.9492C146.048 26.5719 145.62 26.2763 145.117 26.0624C144.627 25.8486 144.054 25.7416 143.4 25.7416C142.821 25.7416 142.287 25.8423 141.796 26.0435C141.318 26.2322 140.903 26.509 140.551 26.8738C140.211 27.2386 139.941 27.6789 139.739 28.1946C139.551 28.7104 139.456 29.2764 139.456 29.8928C139.456 30.5218 139.551 31.0941 139.739 31.6099C139.941 32.1256 140.211 32.5659 140.551 32.9307C140.903 33.2955 141.318 33.5786 141.796 33.7798C142.287 33.9811 142.821 34.0817 143.4 34.0817C144.079 34.0817 144.671 33.9748 145.174 33.761C145.677 33.5471 146.111 33.2515 146.476 32.8741L148.476 34.8742C147.834 35.4655 147.098 35.9309 146.268 36.2705C145.45 36.6102 144.501 36.78 143.419 36.78ZM150.107 36.5724V23.2509H152.22L157.466 31.4212H156.39L161.617 23.2509H163.749V36.5724H160.787V28.2512L161.315 28.3833L157.9 33.7043H155.938L152.541 28.3833L153.051 28.2512V36.5724H150.107Z" fill="black"/>
<path d="M190.159 106.062H191.414V110.455H190.473C190.299 110.455 190.159 110.315 190.159 110.142V106.062Z" fill="black"/>
<line x1="0.627587" y1="-0.627587" x2="18.9242" y2="-0.627587" transform="matrix(0 1 1 0 186.345 83.5173)" stroke="black" stroke-width="1.25517" stroke-linecap="round"/>
<line x1="195.662" y1="84.1449" x2="195.662" y2="102.441" stroke="black" stroke-width="1.25517" stroke-linecap="round"/>
<path d="M215.576 55.7104V67.876C215.576 74.9014 209.881 80.5967 202.855 80.5967H178.09C171.064 80.5967 165.369 74.9014 165.369 67.876V55.7104V49.6277C165.369 49.0811 165.812 48.638 166.359 48.638H173.283C173.83 48.638 174.273 49.0811 174.273 49.6277V54.407C174.273 55.3002 174.997 56.0242 175.89 56.0242H177.764H190.473H203.181H205.055C205.948 56.0242 206.672 55.3002 206.672 54.407V49.6277C206.672 49.0811 207.115 48.638 207.662 48.638H214.587C215.133 48.638 215.576 49.0811 215.576 49.6277V55.7104Z" fill="#0099FF" stroke="black" stroke-width="0.627587"/>
<rect x="178.404" y="82.0932" width="24.5725" height="2.84828" rx="1.42414" fill="#0099FF" stroke="black" stroke-width="0.627587"/>
<circle cx="190.473" cy="98.9415" r="7.72415" fill="#FFB630" stroke="black" stroke-width="0.627587"/>
<path d="M187.335 112.966C187.161 112.966 187.02 113.106 187.034 113.279C187.087 113.913 187.3 114.526 187.656 115.058C188.069 115.677 188.657 116.16 189.346 116.445C190.034 116.73 190.791 116.804 191.521 116.659C192.252 116.514 192.923 116.155 193.449 115.628C193.976 115.102 194.334 114.431 194.48 113.7C194.625 112.97 194.55 112.213 194.265 111.525C193.98 110.837 193.498 110.249 192.879 109.835C192.429 109.534 191.921 109.335 191.392 109.249C191.06 109.195 190.787 109.472 190.787 109.808V109.808C190.787 110.144 191.062 110.409 191.389 110.488C191.678 110.558 191.953 110.679 192.203 110.846C192.622 111.126 192.949 111.524 193.142 111.99C193.335 112.456 193.385 112.968 193.287 113.463C193.189 113.958 192.946 114.412 192.589 114.768C192.233 115.125 191.778 115.368 191.284 115.466C190.789 115.565 190.277 115.514 189.811 115.321C189.345 115.128 188.947 114.801 188.667 114.382C188.445 114.05 188.305 113.672 188.256 113.279C188.235 113.107 188.096 112.966 187.923 112.966H187.335Z" fill="black"/>
<circle cx="190.69" cy="99.1588" r="1.73793" fill="#333333"/>
<mask id="path-12-inside-1_11_29" fill="white">
<rect x="187.649" y="104.179" width="5.64828" height="3.91035" rx="0.434483"/>
</mask>
<rect x="187.649" y="104.179" width="5.64828" height="3.91035" rx="0.434483" fill="#FFB630" stroke="black" stroke-width="1.25517" mask="url(#path-12-inside-1_11_29)"/>
<rect x="170.149" y="59.9346" width="41.0828" height="16.7517" rx="8.37587" fill="#73C7FF" stroke="black" stroke-width="0.627587"/>
<mask id="mask0_11_29" style="mask-type:alpha" maskUnits="userSpaceOnUse" x="169" y="59" width="43" height="19">
<rect x="170.149" y="59.9346" width="41.0828" height="16.7517" rx="8.37587" fill="white" stroke="black" stroke-width="0.627587"/>
</mask>
<g mask="url(#mask0_11_29)">
<line x1="182.896" y1="56.145" x2="175.992" y2="77.483" stroke="black" stroke-width="1.88276"/>
<line x1="187.289" y1="56.7726" x2="180.386" y2="78.1106" stroke="black" stroke-width="1.88276"/>
<line x1="191.682" y1="57.4002" x2="184.779" y2="78.7382" stroke="black" stroke-width="1.88276"/>
<line x1="196.075" y1="58.0278" x2="189.172" y2="79.3658" stroke="black" stroke-width="1.88276"/>
<line x1="200.468" y1="58.6554" x2="193.565" y2="79.9933" stroke="black" stroke-width="1.88276"/>
<line x1="204.861" y1="59.2829" x2="197.958" y2="80.6209" stroke="black" stroke-width="1.88276"/>
</g>
</g>
<defs>
<filter id="filter0_d_11_29" x="0" y="0" width="291.69" height="120.731" filterUnits="userSpaceOnUse" color-interpolation-filters="sRGB">
<feFlood flood-opacity="0" result="BackgroundImageFix"/>
<feColorMatrix in="SourceAlpha" type="matrix" values="0 0 0 0 0 0 0 0 0 0 0 0 0 0 0 0 0 0 127 0" result="hardAlpha"/>
<feOffset dx="3" dy="4"/>
<feComposite in2="hardAlpha" operator="out"/>
<feColorMatrix type="matrix" values="0 0 0 0 0.918056 0 0 0 0 0.596736 0 0 0 0 0 0 0 0 1 0"/>
<feBlend mode="normal" in2="BackgroundImageFix" result="effect1_dropShadow_11_29"/>
<feBlend mode="normal" in="SourceGraphic" in2="effect1_dropShadow_11_29" result="shape"/>
</filter>
</defs>
</svg>
