<svg width="283" height="197" viewBox="0 0 283 197" fill="none" xmlns="http://www.w3.org/2000/svg">
<g filter="url(#filter0_d_13_93)">
<mask id="path-1-inside-1_13_93" fill="white">
<path fill-rule="evenodd" clip-rule="evenodd" d="M12.4746 192.108C10.1781 192.108 8.31641 190.247 8.31641 187.95L8.31641 34.0972C8.31641 31.8007 10.1781 29.939 12.4746 29.939L53.2437 29.939C55.8342 29.939 57.7942 32.282 57.3365 34.8318L29.7219 188.685C29.3662 190.666 27.6422 192.108 25.6291 192.108H12.4746ZM22.8701 123.082C21.0329 123.082 19.5436 121.593 19.5436 119.756L19.5436 53.5717C19.5436 51.7345 21.0329 50.2452 22.8701 50.2452H38.5438C40.6069 50.2452 42.1724 52.1036 41.822 54.1367L30.415 120.321C30.14 121.917 28.756 123.082 27.1368 123.082H22.8701ZM19.5436 161.338C19.5436 162.256 20.2883 163.001 21.2069 163.001H22.3237C23.1231 163.001 23.8094 162.432 23.958 161.647L29.1501 134.203C29.3439 133.179 28.5583 132.23 27.5158 132.23H21.2069C20.2883 132.23 19.5436 132.975 19.5436 133.894L19.5436 161.338Z"/>
</mask>
<path fill-rule="evenodd" clip-rule="evenodd" d="M12.4746 192.108C10.1781 192.108 8.31641 190.247 8.31641 187.95L8.31641 34.0972C8.31641 31.8007 10.1781 29.939 12.4746 29.939L53.2437 29.939C55.8342 29.939 57.7942 32.282 57.3365 34.8318L29.7219 188.685C29.3662 190.666 27.6422 192.108 25.6291 192.108H12.4746ZM22.8701 123.082C21.0329 123.082 19.5436 121.593 19.5436 119.756L19.5436 53.5717C19.5436 51.7345 21.0329 50.2452 22.8701 50.2452H38.5438C40.6069 50.2452 42.1724 52.1036 41.822 54.1367L30.415 120.321C30.14 121.917 28.756 123.082 27.1368 123.082H22.8701ZM19.5436 161.338C19.5436 162.256 20.2883 163.001 21.2069 163.001H22.3237C23.1231 163.001 23.8094 162.432 23.958 161.647L29.1501 134.203C29.3439 133.179 28.5583 132.23 27.5158 132.23H21.2069C20.2883 132.23 19.5436 132.975 19.5436 133.894L19.5436 161.338Z" fill="#FFBB3C"/>
<path d="M8.31641 187.95L9.81641 187.95L8.31641 187.95ZM8.31641 34.0972L6.81641 34.0972L8.31641 34.0972ZM12.4746 29.939L12.4746 28.439L12.4746 29.939ZM53.2437 29.939L53.2437 28.439L53.2437 29.939ZM57.3365 34.8318L55.8601 34.5668L55.8601 34.5668L57.3365 34.8318ZM29.7219 188.685L28.2455 188.42L28.2455 188.42L29.7219 188.685ZM19.5436 119.756L21.0436 119.756L21.0436 119.756L19.5436 119.756ZM19.5436 53.5717L18.0436 53.5717L18.0436 53.5717L19.5436 53.5717ZM41.822 54.1367L40.3438 53.8819L40.3438 53.8819L41.822 54.1367ZM30.415 120.321L28.9368 120.066L28.9368 120.066L30.415 120.321ZM19.5436 161.338L21.0436 161.338L21.0436 161.338L19.5436 161.338ZM23.958 161.647L25.4318 161.926L25.4318 161.926L23.958 161.647ZM29.1501 134.203L30.6239 134.482L30.6239 134.482L29.1501 134.203ZM19.5436 133.894L18.0436 133.894L18.0436 133.894L19.5436 133.894ZM6.81641 187.95C6.81641 191.075 9.34968 193.608 12.4746 193.608V190.608C11.0065 190.608 9.81641 189.418 9.81641 187.95L6.81641 187.95ZM6.81641 34.0972L6.81641 187.95L9.81641 187.95L9.81641 34.0972L6.81641 34.0972ZM12.4746 28.439C9.34967 28.439 6.81641 30.9722 6.81641 34.0972L9.81641 34.0972C9.81641 32.6291 11.0065 31.439 12.4746 31.439L12.4746 28.439ZM53.2437 28.439L12.4746 28.439L12.4746 31.439L53.2437 31.439L53.2437 28.439ZM58.8129 35.0968C59.4357 31.6272 56.7687 28.439 53.2437 28.439L53.2437 31.439C54.8998 31.439 56.1527 32.9368 55.8601 34.5668L58.8129 35.0968ZM31.1983 188.95L58.8129 35.0968L55.8601 34.5668L28.2455 188.42L31.1983 188.95ZM25.6291 193.608C28.3684 193.608 30.7143 191.646 31.1983 188.95L28.2455 188.42C28.0181 189.687 26.916 190.608 25.6291 190.608V193.608ZM12.4746 193.608H25.6291V190.608H12.4746V193.608ZM18.0436 119.756C18.0436 122.422 20.2045 124.582 22.8701 124.582V121.582C21.8614 121.582 21.0436 120.765 21.0436 119.756H18.0436ZM18.0436 53.5717L18.0436 119.756L21.0436 119.756L21.0436 53.5717L18.0436 53.5717ZM22.8701 48.7452C20.2045 48.7452 18.0436 50.9061 18.0436 53.5717H21.0436C21.0436 52.5629 21.8614 51.7452 22.8701 51.7452V48.7452ZM38.5438 48.7452H22.8701V51.7452H38.5438V48.7452ZM43.3002 54.3915C43.8086 51.4417 41.5371 48.7452 38.5438 48.7452V51.7452C39.6766 51.7452 40.5362 52.7656 40.3438 53.8819L43.3002 54.3915ZM31.8932 120.576L43.3002 54.3915L40.3438 53.8819L28.9368 120.066L31.8932 120.576ZM27.1368 124.582C29.4861 124.582 31.4942 122.891 31.8932 120.576L28.9368 120.066C28.7858 120.942 28.0259 121.582 27.1368 121.582V124.582ZM22.8701 124.582H27.1368V121.582H22.8701V124.582ZM21.2069 161.501C21.1167 161.501 21.0436 161.428 21.0436 161.338H18.0436C18.0436 163.085 19.4598 164.501 21.2069 164.501V161.501ZM22.3237 161.501H21.2069V164.501H22.3237V161.501ZM22.4841 161.368C22.4695 161.445 22.4022 161.501 22.3237 161.501V164.501C23.8439 164.501 25.1492 163.42 25.4318 161.926L22.4841 161.368ZM27.6762 133.924L22.4841 161.368L25.4318 161.926L30.6239 134.482L27.6762 133.924ZM27.5158 133.73C27.6181 133.73 27.6953 133.824 27.6762 133.924L30.6239 134.482C30.9925 132.534 29.4986 130.73 27.5158 130.73V133.73ZM21.2069 133.73H27.5158V130.73H21.2069V133.73ZM21.0436 133.894C21.0436 133.804 21.1167 133.73 21.2069 133.73V130.73C19.4598 130.73 18.0436 132.147 18.0436 133.894H21.0436ZM21.0436 161.338L21.0436 133.894L18.0436 133.894L18.0436 161.338L21.0436 161.338Z" fill="black" mask="url(#path-1-inside-1_13_93)"/>
<mask id="path-3-inside-2_13_93" fill="white">
<path fill-rule="evenodd" clip-rule="evenodd" d="M267.193 191.726C269.489 191.726 271.351 189.865 271.351 187.568L271.351 33.7151C271.351 31.4186 269.49 29.5569 267.193 29.5569L226.424 29.5569C223.833 29.5569 221.873 31.8999 222.331 34.4497L249.946 188.303C250.301 190.284 252.025 191.726 254.039 191.726H267.193ZM256.797 122.7C258.635 122.7 260.124 121.211 260.124 119.374L260.124 53.1896C260.124 51.3524 258.635 49.8631 256.797 49.8631H241.124C239.061 49.8631 237.495 51.7216 237.846 53.7546L249.253 119.939C249.528 121.535 250.912 122.7 252.531 122.7H256.797ZM260.124 160.956C260.124 161.874 259.379 162.619 258.461 162.619H257.344C256.545 162.619 255.858 162.05 255.71 161.265L250.518 133.821C250.324 132.797 251.109 131.848 252.152 131.848H258.461C259.379 131.848 260.124 132.593 260.124 133.512L260.124 160.956Z"/>
</mask>
<path fill-rule="evenodd" clip-rule="evenodd" d="M267.193 191.726C269.489 191.726 271.351 189.865 271.351 187.568L271.351 33.7151C271.351 31.4186 269.49 29.5569 267.193 29.5569L226.424 29.5569C223.833 29.5569 221.873 31.8999 222.331 34.4497L249.946 188.303C250.301 190.284 252.025 191.726 254.039 191.726H267.193ZM256.797 122.7C258.635 122.7 260.124 121.211 260.124 119.374L260.124 53.1896C260.124 51.3524 258.635 49.8631 256.797 49.8631H241.124C239.061 49.8631 237.495 51.7216 237.846 53.7546L249.253 119.939C249.528 121.535 250.912 122.7 252.531 122.7H256.797ZM260.124 160.956C260.124 161.874 259.379 162.619 258.461 162.619H257.344C256.545 162.619 255.858 162.05 255.71 161.265L250.518 133.821C250.324 132.797 251.109 131.848 252.152 131.848H258.461C259.379 131.848 260.124 132.593 260.124 133.512L260.124 160.956Z" fill="#FFBB3C"/>
<path d="M271.351 187.568L269.851 187.568L271.351 187.568ZM271.351 33.7151L272.851 33.7151L271.351 33.7151ZM267.193 29.5569L267.193 28.0569L267.193 29.5569ZM226.424 29.5569L226.424 28.0569L226.424 29.5569ZM222.331 34.4497L223.807 34.1847L223.807 34.1847L222.331 34.4497ZM249.946 188.303L251.422 188.038L251.422 188.038L249.946 188.303ZM260.124 119.374L258.624 119.374V119.374L260.124 119.374ZM260.124 53.1896L261.624 53.1896V53.1896L260.124 53.1896ZM237.846 53.7546L239.324 53.4999L239.324 53.4999L237.846 53.7546ZM249.253 119.939L250.731 119.684L250.731 119.684L249.253 119.939ZM260.124 160.956L258.624 160.956V160.956L260.124 160.956ZM255.71 161.265L254.236 161.544L254.236 161.544L255.71 161.265ZM250.518 133.821L249.044 134.1L249.044 134.1L250.518 133.821ZM260.124 133.512L261.624 133.512V133.512L260.124 133.512ZM272.851 187.568C272.851 190.693 270.318 193.226 267.193 193.226V190.226C268.661 190.226 269.851 189.036 269.851 187.568L272.851 187.568ZM272.851 33.7151L272.851 187.568L269.851 187.568L269.851 33.7151L272.851 33.7151ZM267.193 28.0569C270.318 28.0569 272.851 30.5901 272.851 33.7151L269.851 33.7151C269.851 32.247 268.661 31.0569 267.193 31.0569L267.193 28.0569ZM226.424 28.0569L267.193 28.0569L267.193 31.0569L226.424 31.0569L226.424 28.0569ZM220.855 34.7147C220.232 31.2451 222.899 28.0569 226.424 28.0569L226.424 31.0569C224.768 31.0569 223.515 32.5547 223.807 34.1847L220.855 34.7147ZM248.469 188.568L220.855 34.7147L223.807 34.1847L251.422 188.038L248.469 188.568ZM254.039 193.226C251.299 193.226 248.953 191.264 248.469 188.568L251.422 188.038C251.649 189.304 252.752 190.226 254.039 190.226V193.226ZM267.193 193.226H254.039V190.226H267.193V193.226ZM261.624 119.374C261.624 122.039 259.463 124.2 256.797 124.2V121.2C257.806 121.2 258.624 120.383 258.624 119.374H261.624ZM261.624 53.1896L261.624 119.374L258.624 119.374L258.624 53.1896L261.624 53.1896ZM256.797 48.3631C259.463 48.3631 261.624 50.524 261.624 53.1896H258.624C258.624 52.1809 257.806 51.3631 256.797 51.3631V48.3631ZM241.124 48.3631H256.797V51.3631H241.124V48.3631ZM236.367 54.0094C235.859 51.0596 238.13 48.3631 241.124 48.3631V51.3631C239.991 51.3631 239.131 52.3835 239.324 53.4999L236.367 54.0094ZM247.774 120.194L236.367 54.0094L239.324 53.4999L250.731 119.684L247.774 120.194ZM252.531 124.2C250.181 124.2 248.173 122.509 247.774 120.194L250.731 119.684C250.882 120.56 251.642 121.2 252.531 121.2V124.2ZM256.797 124.2H252.531V121.2H256.797V124.2ZM258.461 161.119C258.551 161.119 258.624 161.046 258.624 160.956H261.624C261.624 162.703 260.208 164.119 258.461 164.119V161.119ZM257.344 161.119H258.461V164.119H257.344V161.119ZM257.183 160.986C257.198 161.063 257.265 161.119 257.344 161.119V164.119C255.824 164.119 254.518 163.038 254.236 161.544L257.183 160.986ZM251.991 133.542L257.183 160.986L254.236 161.544L249.044 134.1L251.991 133.542ZM252.152 133.348C252.049 133.348 251.972 133.441 251.991 133.542L249.044 134.1C248.675 132.152 250.169 130.348 252.152 130.348V133.348ZM258.461 133.348H252.152V130.348H258.461V133.348ZM258.624 133.512C258.624 133.422 258.551 133.348 258.461 133.348V130.348C260.208 130.348 261.624 131.765 261.624 133.512H258.624ZM258.624 160.956L258.624 133.512L261.624 133.512L261.624 160.956L258.624 160.956Z" fill="black" mask="url(#path-3-inside-2_13_93)"/>
<rect x="0.75" y="0.75" width="277.931" height="35.0921" rx="3.40819" fill="#FFBB3C" stroke="black" stroke-width="1.5"/>
<path d="M139.801 74.6296H140.845V78.2831H140.062C139.918 78.2831 139.801 78.1662 139.801 78.0221V74.6296Z" fill="black"/>
<line x1="0.521926" y1="-0.521926" x2="15.7381" y2="-0.521926" transform="matrix(0 1 1 0 136.63 55.8804)" stroke="black" stroke-width="1.04385" stroke-linecap="round"/>
<line x1="144.378" y1="56.4023" x2="144.378" y2="71.6184" stroke="black" stroke-width="1.04385" stroke-linecap="round"/>
<path d="M160.939 32.7551V42.8724C160.939 48.7151 156.203 53.4514 150.36 53.4514H129.764C123.922 53.4514 119.185 48.7151 119.185 42.8724V32.7551V27.6964C119.185 27.2419 119.554 26.8734 120.008 26.8734H125.767C126.222 26.8734 126.59 27.2419 126.59 27.6964V31.6711C126.59 32.4139 127.192 33.0161 127.935 33.0161H129.493H140.062H150.631H152.19C152.932 33.0161 153.535 32.4139 153.535 31.6711V27.6964C153.535 27.2419 153.903 26.8734 154.358 26.8734H160.116C160.571 26.8734 160.939 27.2419 160.939 27.6964V32.7551Z" fill="#0099FF" stroke="black" stroke-width="0.521926"/>
<rect x="130.025" y="54.696" width="20.4354" height="2.36874" rx="1.18437" fill="#0099FF" stroke="black" stroke-width="0.521926"/>
<circle cx="140.062" cy="68.7077" r="6.4237" fill="#FFB630" stroke="black" stroke-width="0.521926"/>
<path d="M137.453 80.3707C137.309 80.3707 137.191 80.4877 137.203 80.6314C137.247 81.1588 137.424 81.668 137.72 82.1105C138.064 82.6255 138.553 83.0268 139.125 83.2639C139.697 83.5009 140.327 83.5629 140.934 83.4421C141.542 83.3212 142.1 83.023 142.538 82.585C142.976 82.1471 143.274 81.5891 143.395 80.9816C143.516 80.3742 143.454 79.7445 143.217 79.1723C142.979 78.6001 142.578 78.111 142.063 77.7669C141.689 77.5169 141.267 77.3516 140.827 77.2799C140.551 77.235 140.323 77.4655 140.323 77.7448V77.7448C140.323 78.024 140.553 78.2444 140.824 78.3104C141.064 78.3688 141.294 78.469 141.501 78.6077C141.85 78.8407 142.122 79.1718 142.282 79.5593C142.443 79.9467 142.485 80.373 142.403 80.7843C142.321 81.1956 142.119 81.5734 141.823 81.87C141.526 82.1665 141.148 82.3684 140.737 82.4503C140.326 82.5321 139.899 82.4901 139.512 82.3296C139.124 82.1691 138.793 81.8973 138.56 81.5487C138.376 81.2726 138.26 80.9581 138.219 80.631C138.201 80.488 138.086 80.3707 137.942 80.3707H137.453Z" fill="black"/>
<circle cx="140.243" cy="68.8884" r="1.44533" fill="#333333"/>
<mask id="path-14-inside-3_13_93" fill="white">
<rect x="137.714" y="73.0638" width="4.69733" height="3.252" rx="0.361333"/>
</mask>
<rect x="137.714" y="73.0638" width="4.69733" height="3.252" rx="0.361333" fill="#FFB630" stroke="black" stroke-width="1.04385" mask="url(#path-14-inside-3_13_93)"/>
<rect x="123.16" y="36.268" width="34.1661" height="13.9314" rx="6.9657" fill="#73C7FF" stroke="black" stroke-width="0.521926"/>
<mask id="mask0_13_93" style="mask-type:alpha" maskUnits="userSpaceOnUse" x="122" y="36" width="36" height="15">
<rect x="123.16" y="36.268" width="34.1661" height="13.9314" rx="6.9657" fill="white" stroke="black" stroke-width="0.521926"/>
</mask>
<g mask="url(#mask0_13_93)">
<line x1="133.761" y1="33.1165" x2="128.02" y2="50.8619" stroke="black" stroke-width="1.56578"/>
<line x1="137.415" y1="33.6384" x2="131.673" y2="51.3839" stroke="black" stroke-width="1.56578"/>
<line x1="141.068" y1="34.1604" x2="135.327" y2="51.9058" stroke="black" stroke-width="1.56578"/>
<line x1="144.722" y1="34.6823" x2="138.98" y2="52.4278" stroke="black" stroke-width="1.56578"/>
<line x1="148.375" y1="35.2042" x2="142.634" y2="52.9497" stroke="black" stroke-width="1.56578"/>
<line x1="152.029" y1="35.7262" x2="146.287" y2="53.4716" stroke="black" stroke-width="1.56578"/>
</g>
<mask id="mask1_13_93" style="mask-type:alpha" maskUnits="userSpaceOnUse" x="4" y="9" width="270" height="17">
<path d="M9.14806 10.8113H269.451C271.288 10.8113 272.777 12.3007 272.777 14.1379V21.6226C272.777 23.4598 271.288 24.9492 269.451 24.9492H9.14807C7.31086 24.9492 5.82151 23.4598 5.82151 21.6226V14.1379C5.82151 12.3007 7.31085 10.8113 9.14806 10.8113Z" fill="#FFBB3C" stroke="black" stroke-width="1.66328"/>
</mask>
<g mask="url(#mask1_13_93)">
<line y1="-5.40565" x2="31.0296" y2="-5.40565" transform="matrix(-0.411857 0.911249 -0.918455 -0.395524 28.2375 4.1582)" stroke="black" stroke-width="10.8113"/>
<line y1="-5.40565" x2="31.0296" y2="-5.40565" transform="matrix(-0.411857 0.911249 -0.918455 -0.395524 48.6853 4.1582)" stroke="black" stroke-width="10.8113"/>
<line y1="-5.40565" x2="31.0296" y2="-5.40565" transform="matrix(-0.411857 0.911249 -0.918455 -0.395524 69.1329 4.1582)" stroke="black" stroke-width="10.8113"/>
<line y1="-5.40565" x2="31.0296" y2="-5.40565" transform="matrix(-0.411857 0.911249 -0.918455 -0.395524 89.5804 4.1582)" stroke="black" stroke-width="10.8113"/>
<line y1="-5.40565" x2="31.0296" y2="-5.40565" transform="matrix(-0.411857 0.911249 -0.918455 -0.395524 110.028 4.1582)" stroke="black" stroke-width="10.8113"/>
<line y1="-5.40565" x2="31.0296" y2="-5.40565" transform="matrix(-0.411857 0.911249 -0.918455 -0.395524 130.476 4.1582)" stroke="black" stroke-width="10.8113"/>
<line y1="-5.40565" x2="31.0296" y2="-5.40565" transform="matrix(-0.411857 0.911249 -0.918455 -0.395524 150.923 4.1582)" stroke="black" stroke-width="10.8113"/>
<line y1="-5.40565" x2="31.0296" y2="-5.40565" transform="matrix(-0.411857 0.911249 -0.918455 -0.395524 171.371 4.1582)" stroke="black" stroke-width="10.8113"/>
<line y1="-5.40565" x2="31.0296" y2="-5.40565" transform="matrix(-0.411857 0.911249 -0.918455 -0.395524 191.819 4.1582)" stroke="black" stroke-width="10.8113"/>
<line y1="-5.40565" x2="31.0296" y2="-5.40565" transform="matrix(-0.411857 0.911249 -0.918455 -0.395524 212.266 4.1582)" stroke="black" stroke-width="10.8113"/>
<line y1="-5.40565" x2="31.0296" y2="-5.40565" transform="matrix(-0.411857 0.911249 -0.918455 -0.395524 232.714 4.1582)" stroke="black" stroke-width="10.8113"/>
<line y1="-5.40565" x2="31.0296" y2="-5.40565" transform="matrix(-0.411857 0.911249 -0.918455 -0.395524 253.161 4.1582)" stroke="black" stroke-width="10.8113"/>
</g>
</g>
<defs>
<filter id="filter0_d_13_93" x="0" y="0" width="282.431" height="196.108" filterUnits="userSpaceOnUse" color-interpolation-filters="sRGB">
<feFlood flood-opacity="0" result="BackgroundImageFix"/>
<feColorMatrix in="SourceAlpha" type="matrix" values="0 0 0 0 0 0 0 0 0 0 0 0 0 0 0 0 0 0 127 0" result="hardAlpha"/>
<feOffset dx="3" dy="4"/>
<feComposite in2="hardAlpha" operator="out"/>
<feColorMatrix type="matrix" values="0 0 0 0 0.918056 0 0 0 0 0.596736 0 0 0 0 0 0 0 0 1 0"/>
<feBlend mode="normal" in2="BackgroundImageFix" result="effect1_dropShadow_13_93"/>
<feBlend mode="normal" in="SourceGraphic" in2="effect1_dropShadow_13_93" result="shape"/>
</filter>
</defs>
</svg>
